<?xml version="1.0" encoding="UTF-8"?>
<svg id="Layer_2" data-name="Layer 2" xmlns="http://www.w3.org/2000/svg" viewBox="0 0 2498.9 878.89">
  <defs>
    <style>
      .cls-1 {
        fill: #611120;
      }
    </style>
  </defs>
  <g id="Camada_1" data-name="Camada 1">
    <g>
      <path class="cls-1" d="M651.22,62.27s-.02-.04-.03-.06h-.01s.02.02.05.06Z"/>
      <path class="cls-1" d="M978.17,231.78c13.34-23.29,19.44-49.14,20.02-77.54,1.05-50.57-30.44-90.37-31.72-91.97.13.23.23.4-.05-.06-.3-.52-.14-.26.01,0l110.86-.5L1149.81.4l-321.2-.4h-.02c-44.24,0-66.47,6.97-92.03,20.88-25.57,13.93-45.03,32.38-58.37,55.39-13.35,23.01-20.02,49-20.02,77.97s6.67,54.26,20.02,77.54c7.81,13.64,17.73,25.58,29.64,35.9l-13.94,14.36h235.18c20.97-13.01,37.35-29.76,49.1-50.26ZM895.05,217.73c-16.49,14.49-38.64,21.73-66.47,21.73s-50.28-7.24-67.32-21.73c-17.04-14.49-25.56-35.65-25.56-63.49s8.52-49,25.56-63.49c17.04-14.49,39.48-21.73,67.32-21.73s49.98,7.24,66.47,21.73c16.47,14.49,24.71,35.66,24.71,63.49s-8.24,49-24.71,63.49Z"/>
      <path class="cls-1" d="M613.82,282.04c-2.87,1.78-5.81,3.49-8.85,5.13-25.29,13.63-55.82,20.45-91.61,20.45-22.76,0-43.35-2.67-61.76-8.01l-39.41,36.52c1.34.87,2.71,1.75,4.02,2.6,5.68,3.7,13.34,6.96,23.01,9.8,2.89.86,6.1,1.69,9.61,2.49,16.21,3.71,32.81,5.41,49.44,5.49,3.06.02,5.96.01,8.27-.04,1.14-.03,2.22-.04,3.14-.04,35.79,0,66.33,6.97,91.61,20.88,25.28,13.93,44.59,32.38,57.95,55.39,13.34,23,20.02,49.56,20.02,77.97s-6.68,54.25-20.02,77.54c-13.36,23.3-32.68,41.76-57.95,55.39-25.29,13.63-55.25,20.45-91.61,20.45s-67.19-6.82-92.46-20.45c-25.29-13.63-44.61-32.09-57.95-55.39-7.99-13.94-13.57-28.79-16.78-44.56h79.3c4.2,12.25,11.05,22.41,20.56,30.5,17.04,14.49,39.49,21.73,67.32,21.73s49.98-7.24,66.47-21.73c16.47-14.49,24.71-35.66,24.71-63.49s-8.24-49-24.71-63.49c-16.49-14.49-38.63-21.73-66.47-21.73s-50.28,7.24-67.32,21.73c-9.29,7.89-16.02,17.78-20.25,29.64h-79.54c3.22-15.76,8.77-30.47,16.7-44.13,6.92-11.93,15.53-22.61,25.74-32.1-19.15-7.18-35.9-14.19-39.11-16.27-10.52-6.81-19.46-13.91-26.84-21.3v-19.6l59.59-61.37H0v596.85h2498.9V282.04H613.82Z"/>
    </g>
  </g>
</svg>