<?xml version="1.0" encoding="UTF-8"?>
<svg id="Camada_1" data-name="Camada 1" xmlns="http://www.w3.org/2000/svg" viewBox="0 0 1080 1080">
  <defs>
    <style>
      .cls-1 {
        fill: #fff;
      }
    </style>
  </defs>
  <g>
    <path class="cls-1" d="M349.22,249.88c-6.97,0-13.19-1.64-18.66-4.93-5.47-3.29-9.76-7.89-12.84-13.81-3.09-5.92-4.63-12.81-4.63-20.68s1.52-14.88,4.55-20.75c3.04-5.87,7.32-10.45,12.84-13.74,5.52-3.28,11.87-4.93,19.04-4.93s13.63,1.64,18.81,4.93c5.17,3.29,9.13,7.59,11.87,12.91,2.74,5.33,4.1,11.18,4.1,17.54v3.13c0,1.1-.05,2.34-.15,3.73h-61.66v-9.71h49.42c-.3-6.87-2.56-12.24-6.79-16.12-4.23-3.88-9.53-5.82-15.9-5.82-4.18,0-8.11.97-11.79,2.91-3.68,1.94-6.62,4.78-8.81,8.51-2.19,3.73-3.29,8.39-3.29,13.96v4.18c0,6.17,1.12,11.35,3.36,15.53,2.24,4.18,5.17,7.32,8.81,9.41,3.63,2.09,7.54,3.13,11.72,3.13,5.27,0,9.63-1.17,13.06-3.51,3.43-2.34,5.95-5.55,7.54-9.63h12.39c-1.29,4.58-3.43,8.63-6.42,12.17-2.99,3.53-6.7,6.34-11.12,8.43-4.43,2.09-9.58,3.14-15.45,3.14Z"/>
    <path class="cls-1" d="M421.63,249.88c-6.17,0-11.6-1.05-16.27-3.14-4.68-2.09-8.39-5-11.12-8.73-2.74-3.73-4.4-8.14-5-13.21h12.84c.5,2.59,1.54,4.98,3.13,7.17,1.59,2.19,3.76,3.96,6.49,5.3,2.74,1.34,6.1,2.02,10.08,2.02,3.48,0,6.37-.52,8.66-1.57,2.29-1.04,4.01-2.46,5.15-4.25,1.14-1.79,1.72-3.73,1.72-5.82,0-3.08-.72-5.42-2.16-7.02-1.44-1.59-3.56-2.86-6.34-3.81-2.79-.95-6.17-1.77-10.15-2.46-3.29-.6-6.52-1.39-9.7-2.39-3.19-.99-6.02-2.31-8.51-3.95-2.49-1.64-4.46-3.66-5.9-6.05-1.44-2.39-2.16-5.32-2.16-8.81,0-4.28,1.12-8.08,3.36-11.42,2.24-3.33,5.4-5.95,9.48-7.84,4.08-1.89,8.86-2.84,14.33-2.84,8.06,0,14.58,1.94,19.56,5.82,4.98,3.88,7.91,9.51,8.81,16.87h-12.39c-.5-3.78-2.12-6.74-4.85-8.88-2.74-2.14-6.49-3.21-11.27-3.21s-8.24.95-10.67,2.84c-2.44,1.89-3.66,4.38-3.66,7.47,0,1.99.67,3.76,2.01,5.3,1.34,1.55,3.36,2.86,6.05,3.96,2.69,1.1,5.92,1.99,9.7,2.69,4.97.9,9.5,2.09,13.59,3.58,4.08,1.49,7.39,3.71,9.93,6.64,2.54,2.94,3.81,7.09,3.81,12.47,0,4.68-1.17,8.76-3.51,12.24-2.34,3.48-5.65,6.19-9.93,8.14-4.28,1.94-9.31,2.91-15.08,2.91Z"/>
    <path class="cls-1" d="M486.72,248.09c-4.48,0-8.36-.7-11.65-2.09-3.29-1.39-5.8-3.76-7.54-7.09-1.74-3.33-2.61-7.84-2.61-13.51v-41.95h-13.14v-10.6h13.14l1.64-18.21h10.9v18.21h21.8v10.6h-21.8v41.95c0,4.68.95,7.84,2.84,9.48,1.89,1.64,5.22,2.46,10,2.46h8.06v10.75h-11.65Z"/>
    <path class="cls-1" d="M535.24,249.88c-5.77,0-10.82-1.15-15.15-3.43-4.33-2.29-7.66-5.82-10-10.6-2.34-4.78-3.51-10.75-3.51-17.92v-45.09h12.54v43.74c0,7.47,1.64,13.09,4.93,16.87,3.28,3.78,7.91,5.67,13.88,5.67,4.18,0,7.96-1.02,11.35-3.06,3.38-2.04,6.05-4.97,7.99-8.81,1.94-3.83,2.91-8.58,2.91-14.26v-40.16h12.54v75.24h-11.35l-.75-13.14c-2.29,4.68-5.67,8.34-10.15,10.97-4.48,2.63-9.55,3.96-15.23,3.96ZM524.64,166.42l-1.34-8.96,30.01-19.11,1.79,10.75-30.46,17.32Z"/>
    <path class="cls-1" d="M618.99,249.88c-7.27,0-13.66-1.72-19.18-5.15-5.52-3.43-9.78-8.14-12.76-14.11-2.99-5.97-4.48-12.74-4.48-20.3s1.49-14.31,4.48-20.23c2.99-5.92,7.24-10.58,12.76-13.96,5.52-3.38,11.97-5.08,19.33-5.08,6.07,0,11.42,1.25,16.05,3.73,4.63,2.49,8.24,5.97,10.82,10.45v-44.64h12.54v107.49h-11.35l-1.19-12.39c-1.59,2.49-3.63,4.8-6.12,6.94-2.49,2.14-5.45,3.88-8.88,5.23-3.43,1.34-7.44,2.02-12.02,2.02ZM620.34,238.98c4.98,0,9.36-1.19,13.14-3.58,3.78-2.39,6.74-5.7,8.88-9.93,2.14-4.23,3.21-9.23,3.21-15s-1.07-10.65-3.21-14.93c-2.14-4.28-5.1-7.61-8.88-10-3.78-2.39-8.16-3.58-13.14-3.58s-9.08,1.19-12.91,3.58c-3.83,2.39-6.79,5.72-8.88,10-2.09,4.28-3.13,9.26-3.13,14.93s1.04,10.78,3.13,15c2.09,4.23,5.05,7.54,8.88,9.93,3.83,2.39,8.14,3.58,12.91,3.58Z"/>
    <path class="cls-1" d="M679.01,156.87c-2.49,0-4.55-.82-6.2-2.46-1.64-1.64-2.46-3.71-2.46-6.2s.82-4.5,2.46-6.05c1.64-1.54,3.71-2.31,6.2-2.31s4.43.77,6.12,2.31c1.69,1.54,2.54,3.56,2.54,6.05s-.85,4.55-2.54,6.2c-1.69,1.64-3.73,2.46-6.12,2.46ZM672.74,248.09v-75.24h12.54v75.24h-12.54Z"/>
    <path class="cls-1" d="M733.2,249.88c-6.97,0-13.24-1.62-18.81-4.85-5.58-3.23-9.95-7.81-13.14-13.73-3.19-5.92-4.78-12.82-4.78-20.68s1.62-15.05,4.85-20.98c3.23-5.92,7.66-10.5,13.29-13.74,5.62-3.23,11.92-4.85,18.89-4.85s13.51,1.62,19.04,4.85c5.52,3.24,9.9,7.82,13.14,13.74,3.23,5.92,4.85,12.87,4.85,20.83s-1.64,14.91-4.93,20.83c-3.28,5.92-7.71,10.5-13.29,13.73-5.58,3.24-11.94,4.85-19.11,4.85ZM733.35,239.13c4.28,0,8.26-1.07,11.94-3.21,3.68-2.14,6.67-5.35,8.96-9.63,2.29-4.28,3.43-9.55,3.43-15.83s-1.12-11.67-3.36-15.9c-2.24-4.23-5.18-7.41-8.81-9.55-3.63-2.14-7.64-3.21-12.02-3.21s-8.14,1.07-11.87,3.21c-3.73,2.14-6.72,5.33-8.96,9.55-2.24,4.23-3.36,9.53-3.36,15.9s1.12,11.55,3.36,15.83c2.24,4.28,5.17,7.49,8.81,9.63,3.63,2.14,7.59,3.21,11.87,3.21Z"/>
    <path class="cls-1" d="M784.86,248.83c-2.49,0-4.55-.82-6.2-2.46-1.64-1.64-2.46-3.66-2.46-6.05s.82-4.4,2.46-6.05c1.64-1.64,3.71-2.46,6.2-2.46s4.53.82,6.12,2.46c1.59,1.64,2.39,3.66,2.39,6.05s-.8,4.4-2.39,6.05c-1.59,1.64-3.63,2.46-6.12,2.46Z"/>
  </g>
  <path class="cls-1" d="M476.55,277.59c-44.24,0-66.47,6.97-92.03,20.88-25.57,13.93-45.03,32.38-58.37,55.39-13.35,23.01-20.02,49-20.02,77.97s6.67,54.26,20.02,77.54c7.81,13.64,17.73,25.58,29.64,35.9l-73.53,75.73v19.6c7.38,7.39,16.32,14.49,26.84,21.3,3.21,2.08,19.96,9.09,39.11,16.27-10.21,9.49-18.82,20.17-25.74,32.1-7.93,13.66-13.48,28.37-16.7,44.13h79.54c4.23-11.86,10.96-21.75,20.25-29.64,17.04-14.49,39.48-21.73,67.32-21.73s49.98,7.24,66.47,21.73c16.47,14.49,24.71,35.66,24.71,63.49s-8.24,49-24.71,63.49c-16.49,14.49-38.64,21.73-66.47,21.73s-50.28-7.24-67.32-21.73c-9.51-8.09-16.36-18.25-20.56-30.5h-79.3c3.21,15.77,8.79,30.62,16.78,44.56,13.34,23.3,32.66,41.76,57.95,55.39,25.27,13.63,56.1,20.45,92.46,20.45s66.32-6.82,91.61-20.45c25.27-13.63,44.59-32.09,57.95-55.39,13.34-23.29,20.02-49.13,20.02-77.54s-6.68-54.97-20.02-77.97c-13.36-23.01-32.67-41.46-57.95-55.39-25.28-13.91-55.82-20.88-91.61-20.88-.92,0-2,.01-3.14.04-2.31.05-5.21.06-8.27.04-16.63-.08-33.23-1.78-49.44-5.49-3.51-.8-6.72-1.63-9.61-2.49-9.67-2.84-17.33-6.1-23.01-9.8-1.31-.85-2.68-1.73-4.02-2.6l39.41-36.52c18.41,5.34,39,8.01,61.76,8.01,35.79,0,66.32-6.82,91.61-20.45,25.27-13.63,44.59-32.09,57.95-55.39,13.34-23.29,19.44-49.14,20.02-77.54,1.07-51.62-31.77-92.03-31.77-92.03-.59-1.02.61,1,0,0l110.87-.5,72.52-61.31-321.2-.4ZM383.66,431.83c0-27.83,8.52-49,25.56-63.49,17.04-14.49,39.48-21.73,67.32-21.73s49.98,7.24,66.47,21.73c16.47,14.49,24.71,35.66,24.71,63.49s-8.24,49-24.71,63.49c-16.49,14.49-38.64,21.73-66.47,21.73s-50.28-7.24-67.32-21.73c-17.04-14.49-25.56-35.65-25.56-63.49Z"/>
</svg>