<?xml version="1.0" encoding="UTF-8"?>
<svg id="Camada_1" data-name="Camada 1" xmlns="http://www.w3.org/2000/svg" viewBox="0 0 1080 1080">
  <defs>
    <style>
      .cls-1 {
        fill: #611120;
      }
    </style>
  </defs>
  <path class="cls-1" d="M667.69,300.61s-.05-.06-.05-.06c.26.42.17.26.05.06Z"/>
  <path class="cls-1" d="M667.65,300.55h.01c-.14-.23-.29-.47-.01,0Z"/>
  <path class="cls-1" d="M540.16,306.86c-25.75,0-46.51,6.7-62.28,20.1-15.76,13.4-23.65,32.99-23.65,58.73s7.88,45.33,23.65,58.73c15.77,13.4,36.52,20.1,62.28,20.1s46.24-6.7,61.49-20.1c15.24-13.4,22.86-32.97,22.86-58.73s-7.62-45.33-22.86-58.73c-15.25-13.4-35.75-20.1-61.49-20.1Z"/>
  <path class="cls-1" d="M667.66,300.55s.02.04.03.06c.96,1.2,30.32,38.11,29.35,85.08-.54,26.28-6.18,50.19-18.52,71.73-12.36,21.56-30.23,38.63-53.61,51.24-23.39,12.61-51.63,18.92-84.74,18.92-21.05,0-40.09-2.47-57.13-7.41l-36.46,33.78c1.24.8,2.51,1.62,3.72,2.4,5.25,3.43,12.34,6.44,21.28,9.07,2.68.79,5.64,1.56,8.89,2.3,14.99,3.43,30.36,5,45.74,5.07,2.83.01,5.51,0,7.65-.04,1.06-.02,2.05-.04,2.91-.04,33.11,0,61.35,6.44,84.74,19.31,23.38,12.88,41.25,29.96,53.61,51.24,12.34,21.28,18.52,45.33,18.52,72.13s-6.18,50.19-18.52,71.73c-12.36,21.56-30.23,38.63-53.61,51.24-23.39,12.61-51.63,18.92-84.74,18.92s-62.15-6.31-85.53-18.92c-23.39-12.61-41.26-29.68-53.61-51.24-7.39-12.89-12.55-26.63-15.52-41.22h73.36c3.89,11.33,10.23,20.73,19.02,28.21,15.77,13.4,36.52,20.1,62.28,20.1s46.24-6.7,61.49-20.1c15.24-13.4,22.86-32.97,22.86-58.73s-7.63-45.33-22.86-58.73c-15.25-13.4-35.75-20.1-61.49-20.1s-46.51,6.7-62.28,20.1c-8.59,7.3-14.82,16.45-18.73,27.42h-73.58c2.98-14.58,8.11-28.19,15.45-40.82,6.4-11.04,14.36-20.92,23.81-29.69-17.71-6.64-33.2-13.12-36.17-15.05-9.73-6.31-18.01-12.87-24.83-19.71v-18.13l68.02-70.06c-11.02-9.55-20.19-20.59-27.42-33.21-12.35-21.54-18.52-45.45-18.52-71.73s6.17-50.85,18.52-72.13c12.34-21.28,30.35-38.36,54-51.24,23.65-12.87,44.21-19.32,85.14-19.32l245.28.3c-28.67-108.75-127.69-188.95-245.45-188.95h0c-140.19,0-253.83,113.64-253.83,253.83v463.61c0,140.19,113.64,253.83,253.83,253.83h0c140.19,0,253.83-113.64,253.83-253.83v-463.61c0-2.68-.06-5.35-.14-8.01l-126.04.37Z"/>
</svg>